<svg id="Capa_1" data-name="Capa 1" xmlns="http://www.w3.org/2000/svg" viewBox="0 0 516.07 276.6"><defs><style>.cls-1{fill:#dbd6e9;}.cls-2{fill:#d1def3;}</style></defs><path class="cls-1" d="M143.13,460.32c-.91-5.81-2.93-18.63-14.11-29.51a48.06,48.06,0,0,0-26.83-13H79A45.35,45.35,0,0,0,51,436.46a66.24,66.24,0,0,0-11,25.27l-.14,25A62.67,62.67,0,0,0,50,514.11a41.21,41.21,0,0,0,8,9c5.47,4.5,11.12,6.61,15.38,8.19a71.2,71.2,0,0,0,7.77,2.4c12.19,0,45.79,1.49,51.1-4.8a13.74,13.74,0,0,0,3.25-10.45,11.55,11.55,0,0,0-3.67-7.48c-1.86-1.62-20.32-.52-25.55-.28-10.24.48-15.48.67-21.18-1.27a32.08,32.08,0,0,1-16-11.15A30.6,30.6,0,0,1,63.79,486h67.63c2.41-1.26,8.19-4.71,11-11.52C143,472.91,144.47,468.81,143.13,460.32Zm-79.41,4.4c.14-4.07,1.09-10.05,5.16-15.13,10-12.44,33.72-13.33,44.51-1.22,4.92,5.52,6,12.4,6.12,16.66Z" transform="translate(-39.79 -367.05)"/><path class="cls-1" d="M159,428.73l.51,93.81a13,13,0,0,0,25.37-.85q-.17-31.86-.32-63.72a23.4,23.4,0,0,1,44.61-1.51q.18,33.42.37,66.82A12.55,12.55,0,0,0,254,522.16l.57-63.44a23.44,23.44,0,0,1,45.18-1.32v64.76a13.12,13.12,0,0,0,25.41,1.31L325,454a42.74,42.74,0,0,0-77.55-18.63,38.34,38.34,0,0,0-20.33-16.94c-14.35-4.89-26.69,1.07-29.93,2.63a43.2,43.2,0,0,0-13.74,10.54A12.4,12.4,0,0,0,159,428.73Z" transform="translate(-39.79 -367.05)"/><path class="cls-1" d="M343,377.09l.27,146.19a13.63,13.63,0,0,0,11.67,9,13.77,13.77,0,0,0,13.83-10V377.36a13.25,13.25,0,0,0-25.77-.27Z" transform="translate(-39.79 -367.05)"/><path class="cls-2" d="M386.82,420l.13,22.19c1.57-.2,4.07-.49,7.17-.7,8-.53,12.67-.79,17.78,1.2a23.47,23.47,0,0,1,5.71,3.18c7.3,5.68,8.63,14.9,8.94,18l-39.6.43q.07,10.88.14,21.76l48.68-.49a18,18,0,0,0,14.63-9.66,49.71,49.71,0,0,0-.15-21.3,48.92,48.92,0,0,0-11.81-22.43,47.75,47.75,0,0,0-25.61-13.8,58.68,58.68,0,0,0-23.62.93C388.4,419.53,387.6,419.75,386.82,420Z" transform="translate(-39.79 -367.05)"/><path class="cls-2" d="M386.82,507q-.06,12.4-.13,24.82a96.92,96.92,0,0,0,53.47-2.92,11.5,11.5,0,0,0-7-20.57A80,80,0,0,1,386.82,507Z" transform="translate(-39.79 -367.05)"/><path class="cls-2" d="M525.54,442.69l-51.44-.32a12.65,12.65,0,0,1-.31-23l72.89.16a13.41,13.41,0,0,1,6.78,4.89c2,2.9,2.2,5.84,2.37,9.94A42.15,42.15,0,0,1,554.41,447L497.3,509.27l49.22.16a12.11,12.11,0,0,1,9.15,9.31c1,5.58-2.5,11.52-8.52,13.57H474.73a13,13,0,0,1-7.73-7.1,32.54,32.54,0,0,1,.16-19.57Z" transform="translate(-39.79 -367.05)"/><path class="cls-1" d="M166.3,603.56q5.26,17.15,10.52,34.29a9.42,9.42,0,0,0,6.86,4.15,9.58,9.58,0,0,0,8-3.67l4.3-12.76c.16-1.62.67-2.71,1.12-2.71s.88,1,1.11,2.23l4,12.6A9.33,9.33,0,0,0,209,642a9,9,0,0,0,8.45-4.63q4.86-16.83,9.73-33.65a5.56,5.56,0,0,0-4.47-4.46,5.67,5.67,0,0,0-4.67,1.6q-3.53,14.58-7,29.15c0,.89-.52,1.57-1,1.63s-1.39-.67-1.41-1.91l-8.4-29a3.8,3.8,0,0,0-6.78-.35q-3.94,14.61-7.9,29.22a1.28,1.28,0,1,1-2.54-.28q-3.57-14.09-7.13-28.17a5.09,5.09,0,0,0-9.59,2.42Z" transform="translate(-39.79 -367.05)"/><path class="cls-1" d="M317,619.43a22.52,22.52,0,0,0-3.6-12.36,20.73,20.73,0,0,0-7.06-6.35,18.79,18.79,0,0,0-21.95,2q0-10-.07-20a5.49,5.49,0,0,0-9.88.14q0,27.86-.07,55.7a4.55,4.55,0,0,0,9-1.06c1.38,1.29,6.46,5.76,13.77,5.71,8.9,0,15.67-6.65,18.35-12.84A23.44,23.44,0,0,0,317,619.43ZM295.68,634.6c-6.92,0-12.26-7.21-12.15-14,.11-6.5,5.14-13.56,12.07-13.56,6.76,0,11.68,6.69,12.08,12.85C308.12,626.85,302.8,634.58,295.68,634.6Z" transform="translate(-39.79 -367.05)"/><path class="cls-2" d="M319.91,619.54a22.92,22.92,0,0,1,3.53-12.35,20.57,20.57,0,0,1,6.9-6.35,18.07,18.07,0,0,1,21.49,2q0-10,.07-20a5.31,5.31,0,0,1,9.67.14q0,27.84.07,55.69A4.53,4.53,0,0,1,357,642.2a4.58,4.58,0,0,1-4.14-4.52c-1.35,1.3-6.32,5.76-13.47,5.72-8.71,0-15.35-6.65-18-12.85A24,24,0,0,1,319.91,619.54Zm20.87,15.18c6.76,0,12-7.21,11.88-14.05-.1-6.49-5-13.55-11.81-13.55-6.61,0-11.43,6.68-11.82,12.84C328.6,627,333.8,634.69,340.78,634.72Z" transform="translate(-39.79 -367.05)"/><path class="cls-1" d="M267.79,610c-2.77-7.18-12.24-11.45-13.2-11.86H243.72a17.79,17.79,0,0,0-14.19,14.19V626A19.7,19.7,0,0,0,235,637.71a18.71,18.71,0,0,0,6.49,4.23,35.87,35.87,0,0,0,10.17,1.49A36.31,36.31,0,0,0,264.76,641a5,5,0,0,0,1.41-3.75,5.33,5.33,0,0,0-4.8-4.44,29.22,29.22,0,0,1-10,1c-3.23-.26-5.9-.47-8.4-2.4a12.1,12.1,0,0,1-4.24-7.13l25.77-.07a8.64,8.64,0,0,0,2.82-2.55,9,9,0,0,0,1.55-5.29A16.17,16.17,0,0,0,267.79,610Zm-29,6.56a10.51,10.51,0,0,1,21,0Z" transform="translate(-39.79 -367.05)"/><path class="cls-2" d="M406.07,610.27c-2.77-7.18-12.25-11.45-13.2-11.86H382a17.79,17.79,0,0,0-14.19,14.19v13.62a19.7,19.7,0,0,0,5.44,11.72,18.71,18.71,0,0,0,6.49,4.23,35.76,35.76,0,0,0,23.3-1,5,5,0,0,0,1.41-3.74,5.33,5.33,0,0,0-4.8-4.44,29,29,0,0,1-10,1c-3.22-.25-5.89-.46-8.4-2.4a12.08,12.08,0,0,1-4.23-7.12l25.76-.08a8.39,8.39,0,0,0,2.83-2.54,9,9,0,0,0,1.55-5.29A16.17,16.17,0,0,0,406.07,610.27Zm-29,6.56a10.51,10.51,0,0,1,21,0Z" transform="translate(-39.79 -367.05)"/><path class="cls-2" d="M408.56,605.17l12.8,30.54a8.33,8.33,0,0,0,15.36,2l13.65-31.91a5.29,5.29,0,0,0-9.22-5q-5.28,14.76-10.58,29.52c-.09.9-.6,1.53-1,1.54s-1.08-.75-1-1.88q-5.38-13.74-10.75-27.47a4.78,4.78,0,1,0-9.22,2.56Z" transform="translate(-39.79 -367.05)"/></svg>